# xmcd CD database file
#
# Track frame offsets:
#	150
#	7127
#	22085
#	44645
#	64632
#	74682
#	87382
#	105167
#	119850
#	163277
#	170902
#	188315
#
# Disc length: 2924 seconds
#
# Revision: 2
# Processed by: cddbd v1.5.1PL2 Copyright (c) Steve Scherf et al.
# Submitted via: CDex 1.51
#
DISCID=af0b6a0c
DTITLE=Phoenix - United
DYEAR=2000
DGENRE=Pop
TTITLE0=School's Rules
TTITLE1=Too Young
TTITLE2=Honeymoon
TTITLE3=If I Ever Feel Better
TTITLE4=Party Time
TTITLE5=On Fire
TTITLE6=Embuscade
TTITLE7=Summer Days
TTITLE8=Funky Squaredance
TTITLE9=Definitive Breakes
TTITLE10=Too Young (Zoot Woman Remix)
TTITLE11=If I Ever Feel Better (Todd Edwards Remix)
EXTD=YEAR: 2000
EXTT0=
EXTT1=
EXTT2=
EXTT3=
EXTT4=
EXTT5=
EXTT6=
EXTT7=
EXTT8=
EXTT9=
EXTT10=
EXTT11=
PLAYORDER=
